# xmcd
#
# Track frame offsets:
#	150
#	17834
#	36603
#	54673
#	70574
#	89736
#	102997
#	116018
#	132940
#	146126
#	160440
#	179259
#	195073
#	207522
#
# Disc length: 3062 seconds
#
# Revision: 1
# Processed by: cddbd v1.5.2PL0 Copyright (c) Steve Scherf et al.
# Submitted via: audiograbber 1.83.01
#
DISCID=d00bf40e
DTITLE=Various Artist - A Tribute To The Songs Of Kyla Rowland
DYEAR=2001
DGENRE=Southern Gospel
TTITLE0=He's Still On The Throne (Crabb Family)
TTITLE1=One Scarred Hand (Perry Sisters)
TTITLE2=There Rose A Lamb (Anthony Burger)
TTITLE3=Both Sides Of The River (Redeemed)
TTITLE4=Landing Lights (Ivan Parker)
TTITLE5=He Will Roll You Over The Tide (Karen Peck and New River)
TTITLE6=Heavenly Honey (Jody Brown Indian Family)
TTITLE7=Field Of Grace (Kirk Talley and Janet Paschal)
TTITLE8=The Anchor (Whisnants)
TTITLE9=Wedding Invitation (Inspirations)
TTITLE10=Royal Descendant (Perrys)
TTITLE11=God Saves Old Sinners (Standing Tall)
TTITLE12=I'll Take The Old Highway (Undivided)
TTITLE13=A Wall Of Prayer (Bill Martin)
EXTD=
EXTT0=
EXTT1=
EXTT2=
EXTT3=
EXTT4=
EXTT5=
EXTT6=
EXTT7=
EXTT8=
EXTT9=
EXTT10=
EXTT11=
EXTT12=
EXTT13=
PLAYORDER=
